<svg width="57" height="57" viewBox="0 0 57 57" fill="none" xmlns="http://www.w3.org/2000/svg">
<g clip-path="url(#clip0_1_276)">
<path d="M56.0017 45.3229V40.03C56.0017 37.3168 53.7943 35.1094 51.0811 35.1094C48.3679 35.1094 46.1605 37.3168 46.1605 40.03V45.3229C46.1605 47.4612 47.5318 49.2844 49.4409 49.9614V52.7143H42.8109V0.00927734H13.178V52.7143H6.5625V49.9614C8.47159 49.2844 9.8429 47.4612 9.8429 45.3229V40.03C9.8429 37.3168 7.63552 35.1094 4.92231 35.1094C2.20909 35.1094 0.00170898 37.3168 0.00170898 40.03V45.3229C0.00170898 47.4612 1.37302 49.2844 3.28211 49.9614V52.7143H0.00170898V55.9947H55.9872V52.7143H52.7213V49.9614C54.6303 49.2844 56.0017 47.4612 56.0017 45.3229ZM3.28211 40.03C3.28211 39.1256 4.0179 38.3898 4.92231 38.3898C5.82671 38.3898 6.5625 39.1256 6.5625 40.03V45.3229C6.5625 46.2274 5.82671 46.9631 4.92231 46.9631C4.0179 46.9631 3.28211 46.2274 3.28211 45.3229V40.03ZM26.1845 52.7142V49.2151H29.8043V52.7142H26.1845ZM22.9041 45.9348V52.7143H16.4584V3.28968H39.5305V52.7143H33.0847V45.9348H22.9041ZM49.4409 40.03C49.4409 39.1256 50.1767 38.3898 51.0811 38.3898C51.9855 38.3898 52.7213 39.1256 52.7213 40.03V45.3229C52.7213 46.2274 51.9855 46.9631 51.0811 46.9631C50.1767 46.9631 49.4409 46.2274 49.4409 45.3229V40.03Z" fill="white"/>
<path d="M19.7935 6.56982H23.074V13.1306H19.7935V6.56982Z" fill="white"/>
<path d="M26.3542 6.56982H29.6345V13.1306H26.3542V6.56982Z" fill="white"/>
<path d="M32.915 6.56982H36.1954V13.1306H32.915V6.56982Z" fill="white"/>
<path d="M19.7935 16.4111H23.074V22.9719H19.7935V16.4111Z" fill="white"/>
<path d="M26.3542 16.4111H29.6345V22.9719H26.3542V16.4111Z" fill="white"/>
<path d="M32.915 16.4111H36.1954V22.9719H32.915V16.4111Z" fill="white"/>
<path d="M19.7935 26.2524H23.074V32.8132H19.7935V26.2524Z" fill="white"/>
<path d="M26.3542 26.2524H29.6345V32.8132H26.3542V26.2524Z" fill="white"/>
<path d="M32.915 26.2524H36.1954V32.8132H32.915V26.2524Z" fill="white"/>
<path d="M19.7935 36.0933H23.074V42.6541H19.7935V36.0933Z" fill="white"/>
<path d="M26.3542 36.0933H29.6345V42.6541H26.3542V36.0933Z" fill="white"/>
<path d="M32.915 36.0933H36.1954V42.6541H32.915V36.0933Z" fill="white"/>
</g>
<defs>
<clipPath id="clip0_1_276">
<rect width="56" height="56" fill="white" transform="translate(0.00170898 0.00195312)"/>
</clipPath>
</defs>
</svg>
