<svg width="57" height="57" viewBox="0 0 57 57" fill="none" xmlns="http://www.w3.org/2000/svg">
<g clip-path="url(#clip0_1_294)">
<path d="M47.6892 24.022V19.5393C50.8683 18.5215 52.6111 15.0031 52.6111 11.5958C52.6111 7.57956 50.229 0.0020625 46.0486 0.0020625C41.8854 0.0020625 39.4861 7.5578 39.4861 11.5958C39.4861 14.997 41.227 18.521 44.408 19.5393V23.1809C43.8703 23.1146 43.3228 23.0801 42.7673 23.0801H28.0017V19.5392C31.1808 18.5214 32.9236 15.003 32.9236 11.5957C32.9236 7.57945 30.5415 0.00195312 26.3611 0.00195312C22.1979 0.00195312 19.7986 7.55769 19.7986 11.5957C19.7986 14.9969 21.5395 18.5209 24.7205 19.5392V23.0801H14.6851C13.5494 20.0976 11.5054 16.5176 8.31421 16.5176C2.77283 16.5176 0.00170898 27.249 0.00170898 32.9238C0.00170898 40.1034 3.66118 42.163 6.67358 42.6415V47.6895H9.95483V42.6437C14.7958 41.8851 16.5173 37.8096 16.5173 32.9238H34.5642C35.4688 32.9238 36.2048 33.6598 36.2048 34.5645C36.2048 35.4691 35.4688 36.2051 34.5642 36.2051H31.283C21.3319 36.2051 13.2361 44.3499 13.2361 54.3613V56.002H36.2048V54.3613C36.2048 51.6341 38.4587 49.3301 41.1267 49.3301H42.7673C50.0648 49.3301 56.0017 43.4422 56.0017 36.2051C56.0017 30.6921 52.5564 25.9629 47.6892 24.022ZM8.31421 39.4863C5.97172 39.4863 3.28296 38.7404 3.28296 32.9238C3.28296 26.6834 6.30718 19.7988 8.31421 19.7988C11.0761 19.7988 13.2361 28.9368 13.2361 32.9238C13.2361 36.879 12.1833 39.4863 8.31421 39.4863ZM42.7673 11.5957C42.7673 8.06442 44.9534 3.2832 46.0486 3.2832C47.1479 3.2832 49.3298 8.05042 49.3298 11.5957C49.3298 14.2637 47.8272 16.5176 46.0486 16.5176C44.2699 16.5176 42.7673 14.2637 42.7673 11.5957ZM23.0798 11.5957C23.0798 8.06442 25.2659 3.2832 26.3611 3.2832C27.4604 3.2832 29.6423 8.05042 29.6423 11.5957C29.6423 14.2637 28.1397 16.5176 26.3611 16.5176C24.5824 16.5176 23.0798 14.2637 23.0798 11.5957ZM42.7673 46.0488H41.1267C37.0988 46.0488 33.8261 49.0122 33.0852 52.7207H16.6065C17.4195 45.2874 23.6912 39.4863 31.283 39.4863H34.5642C37.2781 39.4863 39.4861 37.2784 39.4861 34.5645C39.4861 31.8505 37.2781 29.6426 34.5642 29.6426H16.3001C16.1607 28.547 15.9561 27.4412 15.6945 26.3613H42.7673C48.2556 26.3613 52.7205 30.7772 52.7205 36.2051C52.7205 41.6329 48.2556 46.0488 42.7673 46.0488Z" fill="white"/>
</g>
<defs>
<clipPath id="clip0_1_294">
<rect width="56" height="56" fill="white" transform="translate(0.00170898 0.00195312)"/>
</clipPath>
</defs>
</svg>
