<svg width="57" height="57" viewBox="0 0 57 57" fill="none" xmlns="http://www.w3.org/2000/svg">
<g clip-path="url(#clip0_1_300)">
<path d="M47.8008 8.20289C42.5122 2.9145 35.4808 0.00195312 28.0017 0.00195312C20.5226 0.00195312 13.4913 2.9145 8.20265 8.20289C2.91426 13.4915 0.00170898 20.5229 0.00170898 28.002C0.00170898 35.481 2.91426 42.5124 8.20265 47.801C13.4913 53.0894 20.5226 56.002 28.0017 56.002C35.4808 56.002 42.5122 53.0894 47.8008 47.801C53.0892 42.5124 56.0017 35.481 56.0017 28.002C56.0017 20.5229 53.0892 13.4915 47.8008 8.20289ZM48.5132 14.2216C50.5659 17.2669 51.9572 20.7923 52.484 24.5904L52.1688 24.863L45.9878 21.3195L47.4696 14.3553L48.5132 14.2216ZM37.0543 4.99984C40.5724 6.38912 43.6972 8.56416 46.2132 11.3064C45.2426 11.6887 44.5019 12.5362 44.278 13.5882L42.7599 20.723C42.7414 20.8101 42.7269 20.8973 42.7158 20.9843L38.3247 22.9451L30.2076 17.0353C30.0271 16.9038 29.8375 16.7921 29.6423 16.6966V11.8869C29.7174 11.8413 29.791 11.7925 29.8631 11.7401L35.7588 7.44481C36.5577 6.86272 37.0207 5.95239 37.0543 4.99984ZM22.5199 35.7461L19.4045 26.141C19.3419 25.9482 19.4101 25.7384 19.574 25.6192L27.7265 19.6879C27.891 19.5683 28.1119 19.5684 28.2762 19.688L36.4295 25.624C36.5934 25.7434 36.6615 25.9531 36.5989 26.1459L33.4836 35.7461C33.4209 35.9393 33.2423 36.0691 33.0392 36.0691H22.9643C22.7612 36.0691 22.5826 35.9393 22.5199 35.7461ZM22.5309 3.8945C24.2914 3.49506 26.1222 3.2832 28.0017 3.2832C29.8808 3.2832 31.7112 3.49506 33.4713 3.89417L33.7571 4.84333L28.0025 9.03589L22.2466 4.83688L22.5309 3.8945ZM18.9498 4.99941C18.9854 5.94889 19.4471 6.85594 20.2433 7.43694L26.14 11.7388C26.2122 11.7914 26.2861 11.8403 26.3612 11.8861V16.6962C26.1661 16.7916 25.9766 16.9032 25.7962 17.0345L17.6746 22.9431L13.2877 20.9842C13.2766 20.8972 13.2621 20.81 13.2436 20.7229L11.7255 13.5882C11.5016 12.5362 10.761 11.6887 9.79033 11.3064C12.3064 8.56405 15.4315 6.38891 18.9498 4.99941ZM7.49018 14.2216L8.53383 14.3553L10.0156 21.3195L3.83476 24.863L3.51943 24.5904C4.04618 20.7923 5.43754 17.2669 7.49018 14.2216ZM7.03868 41.0852C4.68055 37.3204 3.30757 32.879 3.28449 28.1237C3.46201 28.1542 3.64182 28.1702 3.82207 28.1702C4.36129 28.1702 4.90324 28.0327 5.39215 27.7525L11.7245 24.1221C11.802 24.0777 11.8767 24.0302 11.9491 23.9803L16.1052 25.8362C16.0868 26.2734 16.1423 26.7187 16.2834 27.1536L19.3988 36.7587C19.427 36.8458 19.4592 36.9306 19.4931 37.0143L16.5614 40.7544C16.474 40.7441 16.3858 40.737 16.2965 40.734L9.00185 40.482C8.28194 40.4579 7.59605 40.6813 7.03868 41.0852ZM8.97505 43.7642L16.0948 44.0102L17.9601 50.5871C14.4626 49.0259 11.3916 46.6761 8.97505 43.7642ZM36.6289 43.0296L34.6385 50.0474C34.4709 50.638 34.485 51.2481 34.6528 51.8107C32.5356 52.403 30.3053 52.7207 28.0017 52.7207C25.6491 52.7207 23.3724 52.3901 21.2151 51.7733C21.3723 51.2212 21.3815 50.625 21.2176 50.0475L19.2273 43.0298C19.203 42.9441 19.175 42.8602 19.1443 42.7781L21.9434 39.2071C22.2699 39.2991 22.612 39.3504 22.9643 39.3504H33.0392C33.3481 39.3504 33.6498 39.3126 33.9397 39.2413L36.7119 42.778C36.6811 42.8601 36.6532 42.944 36.6289 43.0296ZM37.8751 50.6607L39.7614 44.0101L46.8819 43.7641C46.8973 43.8028 46.9153 43.8397 46.9332 43.8766C44.4924 46.7827 41.3968 49.1203 37.8751 50.6607ZM46.8546 40.4819L39.5597 40.7339C39.4706 40.7369 39.3823 40.744 39.2949 40.7543L36.4575 37.1345C36.512 37.0126 36.5627 36.8882 36.6047 36.7588L39.72 27.1585C39.8617 26.7218 39.917 26.2748 39.8981 25.836L44.0545 23.9801C44.1269 24.03 44.2017 24.0776 44.2791 24.122L50.6115 27.7524C51.1004 28.0327 51.6422 28.1701 52.1815 28.1701C52.3617 28.1701 52.5415 28.154 52.719 28.1236C52.6956 32.9103 51.3049 37.3791 48.9181 41.1598C48.3437 40.7077 47.6172 40.4558 46.8546 40.4819Z" fill="white"/>
</g>
<defs>
<clipPath id="clip0_1_300">
<rect width="56" height="56" fill="white" transform="translate(0.00170898 0.00195312)"/>
</clipPath>
</defs>
</svg>
