<svg width="57" height="57" fill="none" xmlns="http://www.w3.org/2000/svg"><g clip-path="url(#a)" fill="#fff"><path d="M56.002 45.323V40.03a4.926 4.926 0 0 0-4.92-4.92 4.926 4.926 0 0 0-4.922 4.92v5.293a4.928 4.928 0 0 0 3.28 4.638v2.753h-6.63V.01H13.179v52.705H6.562v-2.753a4.928 4.928 0 0 0 3.28-4.638V40.03a4.926 4.926 0 0 0-4.92-4.92 4.926 4.926 0 0 0-4.92 4.92v5.293a4.928 4.928 0 0 0 3.28 4.638v2.753H.002v3.28h55.985v-3.28h-3.266v-2.753a4.928 4.928 0 0 0 3.28-4.638ZM3.282 40.03c0-.904.736-1.64 1.64-1.64.905 0 1.64.736 1.64 1.64v5.293c0 .904-.735 1.64-1.64 1.64-.904 0-1.64-.736-1.64-1.64V40.03Zm22.902 12.684v-3.499h3.62v3.5h-3.62Zm-3.28-6.78v6.78h-6.446V3.29h23.073v49.424h-6.446v-6.78h-10.18Zm26.537-5.904c0-.904.736-1.64 1.64-1.64.904 0 1.64.736 1.64 1.64v5.293c0 .904-.735 1.64-1.64 1.64-.904 0-1.64-.736-1.64-1.64V40.03Z"/><path d="M19.794 6.57h3.28v6.56h-3.28V6.57Zm6.56 0h3.28v6.56h-3.28V6.57Zm6.561 0h3.28v6.56h-3.28V6.57Zm-13.121 9.841h3.28v6.56h-3.28v-6.56Zm6.56 0h3.28v6.56h-3.28v-6.56Zm6.561 0h3.28v6.56h-3.28v-6.56Zm-13.121 9.841h3.28v6.561h-3.28v-6.56Zm6.56 0h3.28v6.561h-3.28v-6.56Zm6.561 0h3.28v6.561h-3.28v-6.56Zm-13.121 9.841h3.28v6.561h-3.28v-6.56Zm6.56 0h3.28v6.561h-3.28v-6.56Zm6.561 0h3.28v6.561h-3.28v-6.56Z"/></g><defs><clipPath id="a"><path fill="#fff" transform="translate(.002 .002)" d="M0 0h56v56H0z"/></clipPath></defs></svg>