<svg width="57" height="57" fill="none" xmlns="http://www.w3.org/2000/svg"><g clip-path="url(#a)"><path d="M47.69 24.022v-4.483c3.178-1.018 4.921-4.536 4.921-7.943C52.611 7.58 50.23.002 46.05.002c-4.164 0-6.563 7.556-6.563 11.594 0 3.401 1.741 6.925 4.922 7.943v3.642a13.46 13.46 0 0 0-1.64-.1H28.001v-3.542c3.179-1.018 4.922-4.536 4.922-7.943C32.924 7.579 30.54.002 26.36.002c-4.163 0-6.562 7.556-6.562 11.594 0 3.4 1.74 6.925 4.922 7.943v3.541H14.685c-1.136-2.982-3.18-6.562-6.37-6.562-5.542 0-8.313 10.731-8.313 16.406 0 7.18 3.66 9.239 6.672 9.718v5.047h3.28v-5.045c4.842-.759 6.563-4.834 6.563-9.72h18.047a1.642 1.642 0 0 1 0 3.281h-3.281c-9.951 0-18.047 8.145-18.047 18.156v1.641h22.969v-1.64c0-2.728 2.254-5.032 4.922-5.032h1.64c7.298 0 13.235-5.888 13.235-13.125 0-5.513-3.446-10.242-8.313-12.183ZM8.313 39.486c-2.342 0-5.031-.746-5.031-6.562 0-6.24 3.024-13.125 5.031-13.125 2.762 0 4.922 9.138 4.922 13.125 0 3.955-1.053 6.562-4.922 6.562Zm34.453-27.89c0-3.532 2.186-8.313 3.282-8.313 1.099 0 3.28 4.767 3.28 8.313 0 2.668-1.502 4.922-3.28 4.922-1.78 0-3.282-2.254-3.282-4.922Zm-19.687 0c0-3.532 2.186-8.313 3.281-8.313 1.1 0 3.281 4.767 3.281 8.313 0 2.668-1.502 4.922-3.28 4.922-1.78 0-3.282-2.254-3.282-4.922Zm19.687 34.453h-1.64c-4.028 0-7.3 2.963-8.042 6.672H16.606c.813-7.434 7.085-13.235 14.677-13.235h3.281a4.927 4.927 0 0 0 4.922-4.921 4.927 4.927 0 0 0-4.922-4.922H16.3a30.19 30.19 0 0 0-.606-3.282h27.073c5.489 0 9.953 4.416 9.953 9.844 0 5.428-4.464 9.844-9.953 9.844Z" fill="#fff"/></g><defs><clipPath id="a"><path fill="#fff" transform="translate(.002 .002)" d="M0 0h56v56H0z"/></clipPath></defs></svg>