<svg width="57" height="57" fill="none" xmlns="http://www.w3.org/2000/svg"><g clip-path="url(#a)"><path d="M47.8 8.203C42.513 2.915 35.48.002 28.003.002c-7.48 0-14.51 2.913-19.8 8.2-5.288 5.29-8.2 12.32-8.2 19.8 0 7.479 2.912 14.51 8.2 19.799 5.29 5.288 12.32 8.201 19.8 8.201 7.479 0 14.51-2.913 19.799-8.201 5.288-5.289 8.2-12.32 8.2-19.799 0-7.48-2.912-14.51-8.2-19.8Zm.713 6.019a24.57 24.57 0 0 1 3.971 10.368l-.315.273-6.181-3.543 1.482-6.965 1.043-.133ZM37.054 5a24.812 24.812 0 0 1 9.16 6.306 3.164 3.164 0 0 0-1.936 2.282l-1.518 7.135a3.217 3.217 0 0 0-.044.261l-4.391 1.961-8.117-5.91a3.773 3.773 0 0 0-.566-.338v-4.81c.075-.046.149-.095.221-.147l5.896-4.295A3.163 3.163 0 0 0 37.054 5ZM22.52 35.746l-3.116-9.605a.466.466 0 0 1 .17-.522l8.152-5.931a.466.466 0 0 1 .55 0l8.153 5.936c.164.12.232.33.17.522l-3.115 9.6a.466.466 0 0 1-.445.323H22.964a.466.466 0 0 1-.444-.323Zm.01-31.852a24.7 24.7 0 0 1 5.472-.61c1.879 0 3.71.211 5.47.61l.285.95-5.754 4.192-5.756-4.2.284-.942ZM18.95 5c.035.95.497 1.857 1.293 2.438l5.897 4.302c.072.052.146.101.221.147v4.81a3.776 3.776 0 0 0-.565.338l-8.121 5.91-4.387-1.96a3.217 3.217 0 0 0-.044-.261l-1.518-7.135a3.164 3.164 0 0 0-1.936-2.282A24.815 24.815 0 0 1 18.95 5ZM7.49 14.222l1.044.133 1.482 6.965-6.181 3.543-.316-.273A24.57 24.57 0 0 1 7.49 14.222Zm-.45 26.863a24.567 24.567 0 0 1-3.755-12.961 3.154 3.154 0 0 0 2.108-.371l6.333-3.63a3.19 3.19 0 0 0 .224-.143l4.156 1.856a3.75 3.75 0 0 0 .178 1.318l3.116 9.605c.028.087.06.172.094.255l-2.932 3.74a3.17 3.17 0 0 0-.264-.02l-7.295-.252c-.72-.024-1.406.2-1.963.603Zm1.936 2.68 7.12.245 1.865 6.577a24.857 24.857 0 0 1-8.985-6.823Zm27.654-.735-1.99 7.017a3.15 3.15 0 0 0 .014 1.764c-2.117.592-4.348.91-6.651.91-2.353 0-4.63-.33-6.787-.948a3.151 3.151 0 0 0 .003-1.726l-1.99-7.017a3.25 3.25 0 0 0-.084-.252l2.8-3.57a3.79 3.79 0 0 0 1.02.142H33.04c.31 0 .61-.037.9-.109l2.773 3.537a3.22 3.22 0 0 0-.083.252Zm1.246 7.63 1.886-6.65 7.12-.246c.016.039.034.076.052.113a24.846 24.846 0 0 1-9.058 6.784Zm8.98-10.178-7.295.252c-.09.003-.178.01-.265.02l-2.837-3.62a3.84 3.84 0 0 0 .147-.375l3.115-9.6c.142-.437.197-.884.178-1.323l4.156-1.856c.073.05.148.098.225.142l6.332 3.63a3.153 3.153 0 0 0 2.108.372 24.57 24.57 0 0 1-3.8 13.036 3.16 3.16 0 0 0-2.064-.678Z" fill="#fff"/></g><defs><clipPath id="a"><path fill="#fff" transform="translate(.002 .002)" d="M0 0h56v56H0z"/></clipPath></defs></svg>