<svg width="49" height="49" viewBox="0 0 49 49" fill="none" xmlns="http://www.w3.org/2000/svg">
<path d="M15.6983 6.14584C14.8343 4.84984 13.1063 4.46584 11.8103 5.32984C11.7623 5.37784 11.7143 5.37784 11.6663 5.42584C7.39428 8.73784 4.89828 13.8258 4.85028 19.2018H24.0023L15.6983 6.14584Z" fill="white"/>
<path d="M41.9542 12.0498H38.3542C35.7142 12.0498 33.5542 14.2098 33.5542 16.8498V21.6498H4.8502C4.8502 25.4418 6.5782 28.8498 9.3622 31.4418C6.1462 32.2098 4.1302 35.4738 4.8982 38.7378C5.6662 42.0018 8.9302 43.9698 12.1942 43.2018C15.4102 42.4338 17.4262 39.1698 16.6582 35.9058C16.6102 35.7138 16.5622 35.5218 16.5142 35.3778C19.8742 36.2898 23.3782 36.2898 26.7382 35.3778C26.5462 36.0018 26.4022 36.6258 26.4022 37.2498C26.4022 40.5618 29.0422 43.2498 32.3542 43.2498C35.6662 43.2498 38.3542 40.6098 38.3542 37.2978C38.3542 34.5618 36.4822 32.1618 33.8422 31.4898C36.6262 28.9458 38.3542 25.4898 38.3542 21.6978V16.8018H41.9542C42.6262 16.8018 43.1542 16.2738 43.1542 15.6018V13.2018C43.1542 12.5778 42.6262 12.0498 41.9542 12.0498V12.0498ZM10.8502 39.5538C9.5062 39.5538 8.4502 38.4978 8.4502 37.1538C8.4502 35.8098 9.5062 34.7538 10.8502 34.7538C12.1942 34.7538 13.2502 35.8098 13.2502 37.1538C13.2502 38.4978 12.1462 39.5538 10.8502 39.5538ZM34.7542 37.1538C34.7542 38.4978 33.6982 39.5538 32.3542 39.5538C31.0102 39.5538 29.9542 38.4978 29.9542 37.1538C29.9542 35.8098 31.0102 34.7538 32.3542 34.7538C33.6982 34.7538 34.7542 35.8578 34.7542 37.1538Z" fill="white"/>
</svg>
