<svg width="49" height="49" viewBox="0 0 49 49" fill="none" xmlns="http://www.w3.org/2000/svg">
<g clip-path="url(#clip0_1_313)">
<path d="M27.147 36.3442H11.1595C10.5293 36.3442 10.0186 36.8549 10.0186 37.4851V45.4788C10.0186 46.1089 10.5293 46.6196 11.1595 46.6196H27.147C27.7772 46.6196 28.2879 46.1089 28.2879 45.4788V37.4852C28.2879 36.8551 27.7772 36.3442 27.147 36.3442Z" fill="white"/>
<path d="M46.8614 36.3442H30.8736C30.2435 36.3442 29.7328 36.8549 29.7328 37.4851V45.4788C29.7328 46.1089 30.2435 46.6196 30.8736 46.6196H46.8614C47.4915 46.6196 48.0022 46.1089 48.0022 45.4788V37.4852C48.0022 36.8551 47.4915 36.3442 46.8614 36.3442Z" fill="white"/>
<path d="M11.1595 23.3128H27.147C27.7772 23.3128 28.2879 22.8021 28.2879 22.172V14.1784C28.2879 13.5483 27.7772 13.0376 27.147 13.0376H11.1595C10.5293 13.0376 10.0186 13.5483 10.0186 14.1784V22.172C10.0186 22.802 10.5293 23.3128 11.1595 23.3128Z" fill="white"/>
<path d="M46.8614 13.0371H30.8736C30.2435 13.0371 29.7328 13.5478 29.7328 14.178V22.1715C29.7328 22.8016 30.2435 23.3123 30.8736 23.3123H46.8614C47.4915 23.3123 48.0022 22.8016 48.0022 22.1715V14.178C48.0022 13.548 47.4915 13.0371 46.8614 13.0371Z" fill="white"/>
<path d="M20.7712 11.659H36.7589C37.389 11.659 37.8997 11.1483 37.8997 10.5182V2.52464C37.8997 1.8945 37.389 1.38379 36.7589 1.38379H20.7712C20.141 1.38379 19.6303 1.8945 19.6303 2.52464V10.5182C19.6303 11.1482 20.141 11.659 20.7712 11.659Z" fill="white"/>
<path d="M19.9609 25.8318V33.8256C19.9609 34.4558 20.4716 34.9665 21.1017 34.9665H37.0893C37.7194 34.9665 38.2301 34.4558 38.2301 33.8256V25.8318C38.2301 25.2016 37.7194 24.6909 37.0893 24.6909H21.1017C20.4716 24.6908 19.9609 25.2016 19.9609 25.8318Z" fill="white"/>
<path d="M18.2716 33.8256V25.8318C18.2716 25.2016 17.7609 24.6909 17.1308 24.6909H1.14305C0.512904 24.6909 0.00219727 25.2016 0.00219727 25.8318V33.8256C0.00219727 34.4558 0.512904 34.9665 1.14305 34.9665H17.1308C17.7609 34.9666 18.2716 34.4558 18.2716 33.8256Z" fill="white"/>
</g>
<defs>
<clipPath id="clip0_1_313">
<rect width="48" height="48" fill="white" transform="translate(0.00219727 0.00195312)"/>
</clipPath>
</defs>
</svg>
