<svg width="49" height="49" viewBox="0 0 49 49" fill="none" xmlns="http://www.w3.org/2000/svg">
<g clip-path="url(#clip0_1_395)">
<path d="M24.0023 0.00195312C12.8359 0.00195312 3.79169 1.26515 3.79169 10.1072V35.3703C3.79169 37.6061 4.77695 39.5893 6.31797 40.9787V45.4757C6.31797 46.8651 7.45481 48.002 8.84424 48.002H11.3706C12.7727 48.002 13.8969 46.8651 13.8969 45.4757V42.9494H34.1075V45.4757C34.1075 46.8651 35.2317 48.002 36.6338 48.002H39.1601C40.5495 48.002 41.6863 46.8651 41.6863 45.4757V40.9789C43.2273 39.5894 44.2126 37.6062 44.2126 35.3704V10.1072C44.2127 1.26515 35.1686 0.00195312 24.0023 0.00195312ZM12.6338 37.8967C10.537 37.8967 8.84436 36.2041 8.84436 34.1072C8.84436 32.0104 10.537 30.3178 12.6338 30.3178C14.7307 30.3178 16.4233 32.0104 16.4233 34.1072C16.4233 36.2041 14.7306 37.8967 12.6338 37.8967ZM35.3707 37.8967C33.2738 37.8967 31.5812 36.2041 31.5812 34.1072C31.5812 32.0104 33.2738 30.3178 35.3707 30.3178C37.4676 30.3178 39.1602 32.0104 39.1602 34.1072C39.1602 36.2041 37.4675 37.8967 35.3707 37.8967ZM39.1602 22.7388H8.84436V10.1072H39.1602V22.7388Z" fill="white"/>
</g>
<defs>
<clipPath id="clip0_1_395">
<rect width="48" height="48" fill="white" transform="translate(0.00219727 0.00195312)"/>
</clipPath>
</defs>
</svg>
