<svg width="49" height="49" viewBox="0 0 49 49" fill="none" xmlns="http://www.w3.org/2000/svg">
<g clip-path="url(#clip0_1_384)">
<path d="M30.0022 30.6582H3.7522C1.68117 30.6582 0.00219727 32.3372 0.00219727 34.4082V34.877H5.15845C5.93507 34.877 6.5647 35.5066 6.5647 36.2832C6.5647 37.0598 5.93507 37.6895 5.15845 37.6895H0.00219727V40.502C0.00219727 41.2786 0.631822 41.9082 1.40845 41.9082H32.3459C33.1226 41.9082 33.7522 41.2786 33.7522 40.502V37.6895H28.5959C27.8193 37.6895 27.1897 37.0598 27.1897 36.2832C27.1897 35.5066 27.8193 34.877 28.5959 34.877H33.7522V34.4082C33.7522 32.3372 32.0732 30.6582 30.0022 30.6582ZM21.0959 37.6895H12.6584C11.8818 37.6895 11.2522 37.0598 11.2522 36.2832C11.2522 35.5066 11.8818 34.877 12.6584 34.877H21.0959C21.8726 34.877 22.5022 35.5066 22.5022 36.2832C22.5022 37.0598 21.8726 37.6895 21.0959 37.6895Z" fill="white"/>
<path d="M6.29121 22.1452L4.58112 27.8457H29.1736L27.4635 22.1452C26.8041 19.9474 24.8194 18.4707 22.5248 18.4707H11.23C8.93533 18.4707 6.95065 19.9474 6.29121 22.1452V22.1452Z" fill="white"/>
<path d="M42.8459 45.1895H40.5022V22.502H37.6897V45.1895H35.3459C34.5693 45.1895 33.9397 45.8191 33.9397 46.5957C33.9397 47.3723 34.5693 48.002 35.3459 48.002H42.8459C43.6226 48.002 44.2522 47.3723 44.2522 46.5957C44.2522 45.8191 43.6226 45.1895 42.8459 45.1895Z" fill="white"/>
<path d="M39.5253 6.56445H38.1163C38.1178 7.10361 38.1193 7.72733 38.1193 8.00802C38.1193 8.33802 38.122 8.93998 38.1247 9.45673C38.6251 9.45411 39.2027 9.45148 39.5253 9.45148C40.333 9.45148 41.0155 8.79045 41.0155 8.00802C41.0155 7.22558 40.333 6.56445 39.5253 6.56445Z" fill="white"/>
<path d="M44.7209 0.00195312H33.4709C31.6617 0.00195312 30.1897 1.47392 30.1897 3.2832V16.4082C30.1897 18.2175 31.6617 19.6895 33.4709 19.6895H44.7209C46.5302 19.6895 48.0022 18.2175 48.0022 16.4082V3.2832C48.0022 1.47392 46.5302 0.00195312 44.7209 0.00195312ZM39.5255 11.3266C39.2016 11.3266 38.6163 11.3292 38.1136 11.3319V14.0645C38.1136 14.5821 37.6938 15.002 37.1761 15.002C36.6584 15.002 36.2386 14.5821 36.2386 14.0645V5.62695H36.2387C36.2387 5.37889 36.3369 5.14086 36.5122 4.96508C36.6881 4.78855 36.927 4.68945 37.1761 4.68945H39.5255C41.3811 4.68945 42.8908 6.1782 42.8908 8.00802C42.8908 9.83783 41.3811 11.3266 39.5255 11.3266V11.3266Z" fill="white"/>
<path d="M6.09595 48.002C4.5426 48.002 3.28345 46.7428 3.28345 45.1895V44.7207H8.90845V45.1895C8.90845 46.7428 7.64929 48.002 6.09595 48.002Z" fill="white"/>
<path d="M27.6584 48.002C26.1051 48.002 24.8459 46.7428 24.8459 45.1895V44.7207H30.4709V45.1895C30.4709 46.7428 29.2118 48.002 27.6584 48.002Z" fill="white"/>
</g>
<defs>
<clipPath id="clip0_1_384">
<rect width="48" height="48" fill="white" transform="translate(0.00219727 0.00195312)"/>
</clipPath>
</defs>
</svg>
