<svg width="49" height="49" viewBox="0 0 49 49" fill="none" xmlns="http://www.w3.org/2000/svg">
<g clip-path="url(#clip0_1_326)">
<path fill-rule="evenodd" clip-rule="evenodd" d="M46.2843 34.0829L30.8504 43.6678C29.3547 44.5867 27.7192 44.8166 25.9791 44.3504L12.4722 40.7306C12.2528 40.6727 12.0235 40.7032 11.8289 40.8153L5.22257 44.6301L0.00219727 35.5955L12.2827 28.484C14.0079 27.4853 15.8726 26.6482 17.8421 27.2863C18.4255 27.4758 19.1185 27.7152 19.8514 27.9688C22.2995 28.8134 25.3459 29.865 28.4721 30.5511C28.9607 30.6578 29.3795 30.9644 29.6488 31.4122C29.9529 31.9058 30.0376 32.5062 29.8881 33.059C29.6088 34.0946 28.5668 34.7478 27.5147 34.5458C27.4998 34.5423 16.9544 31.7218 16.9544 31.7218C16.5057 31.6001 16.042 31.8688 15.9174 32.319C15.7978 32.7703 16.067 33.2339 16.5157 33.3546L26.9364 36.1457C29.2698 36.7724 31.1994 36.8812 33.5827 35.4915L41.4278 30.9235C44.7385 28.9939 47.0271 29.4178 47.755 30.6278C48.3086 31.554 47.9795 33.0373 46.2843 34.0829V34.0829ZM31.8139 13.0969L23.3919 23.5104L24.2709 16.0384C24.271 16.0361 24.2711 16.0333 24.2716 16.0319L24.2718 16.0308C24.2708 16.0303 24.2695 16.0299 24.2691 16.0299H18.3082L26.2719 5.83025L25.8528 13.0969H31.8139ZM25.0618 3.37354C18.8293 3.37354 13.7636 8.44035 13.7636 14.6683C13.7636 20.8967 18.8294 25.9634 25.0618 25.9634C31.2892 25.9634 36.355 20.8967 36.355 14.6683C36.355 8.44025 31.2892 3.37354 25.0618 3.37354V3.37354Z" fill="white"/>
</g>
<defs>
<clipPath id="clip0_1_326">
<rect width="48" height="48" fill="white" transform="translate(0.00219727 0.00195312)"/>
</clipPath>
</defs>
</svg>
