<svg width="48" height="48" viewBox="0 0 48 48" fill="none" xmlns="http://www.w3.org/2000/svg">
<g clip-path="url(#clip0_1_405)">
<path d="M48.0002 4.21875C48.0002 1.89244 46.1078 0 43.7815 0C41.4552 0 39.5627 1.89244 39.5627 4.21875C39.5627 6.04969 40.7419 7.596 42.3752 8.17847V11.25H39.5627V14.0625H33.844V11.25H31.0315V13.0195C29.6237 12.3207 27.6644 11.569 25.4065 11.3318V8.4375H22.594V11.3318C20.3359 11.569 18.3767 12.3209 16.969 13.0197V11.25H14.1565V14.0625H8.43774V11.25H5.62524V8.17847C7.25856 7.596 8.43774 6.04969 8.43774 4.21875C8.43774 1.89244 6.54531 0 4.21899 0C1.89268 0 0.000244141 1.89244 0.000244141 4.21875C0.000244141 6.04969 1.17943 7.596 2.81274 8.17847V11.25H0.000244141V48H8.43774V45.1875H14.1565V48H16.969V45.1875H22.594V48H25.4065V45.1875H31.0315V48H33.844V45.1875H39.5627V48H48.0002V11.25H45.1877V8.17847C46.8211 7.596 48.0002 6.04969 48.0002 4.21875V4.21875ZM8.43774 42.375V16.8748L14.1565 16.874V42.375H8.43774ZM16.969 42.375V16.2266C17.9338 15.6317 20.0512 14.4988 22.594 14.1633V25.4062H19.7815V33.8438H22.594V42.375H16.969ZM25.4065 42.375V33.8438H28.219V25.4062H25.4065V14.1633C27.9493 14.4989 30.0667 15.6317 31.0315 16.2266V42.375H25.4065ZM33.844 42.375V16.875H39.5627V42.375H33.844Z" fill="white"/>
</g>
<defs>
<clipPath id="clip0_1_405">
<rect width="48" height="48" fill="white" transform="translate(0.000244141)"/>
</clipPath>
</defs>
</svg>
