<svg width="49" height="49" viewBox="0 0 49 49" fill="none" xmlns="http://www.w3.org/2000/svg">
<g clip-path="url(#clip0_1_368)">
<path d="M13.8141 12.1908C16.4741 11.769 18.2897 9.27167 17.8675 6.61002C17.5994 4.91965 16.4906 3.57145 15.0349 2.9212C15.2685 2.70554 15.5405 2.49676 15.8642 2.30159C16.018 2.20884 16.1041 2.03513 16.0844 1.85634C16.0646 1.67772 15.9427 1.52679 15.7722 1.46993C14.9479 1.19511 14.0184 1.33326 13.1692 1.64003C13.2738 1.3385 13.4157 1.02468 13.6099 0.698733C13.702 0.544364 13.6959 0.3505 13.5943 0.202358C13.4927 0.0540511 13.3141 -0.021659 13.1368 0.00849393C11.3796 0.307729 10.0478 2.34813 9.57366 3.51787C9.48927 3.72615 9.42863 3.93919 9.39143 4.15173C8.46521 5.2043 7.99702 6.6459 8.23366 8.13749C8.65564 10.7995 11.1546 12.6126 13.8141 12.1908Z" fill="white"/>
<path d="M47.1481 11.3039C46.4623 10.6668 45.3894 10.7058 44.7519 11.3921L39.0524 17.5269C38.5765 17.188 38.0263 16.9563 37.4382 16.8629L34.9563 16.4694C34.3616 16.3752 33.7595 16.425 33.1968 16.6049L29.6712 9.00082C29.2772 8.15129 28.2692 7.78192 27.4199 8.17571C26.5704 8.5695 26.201 9.57766 26.5948 10.427L30.6798 19.2381C30.5914 19.5629 30.7043 18.8995 29.2597 28.3562L27.0297 31.0986L27.0952 31.1793C27.7131 31.939 28.0501 32.8883 28.0501 33.8673V42.0355C28.0778 42.0364 28.105 42.0396 28.1331 42.0396C29.3036 42.0396 30.2525 41.0907 30.2525 39.9202V33.8537L32.6159 30.9472L34.7159 31.3482L34.164 34.8289C34.1453 34.9476 34.1365 35.0675 34.1381 35.1876L34.2343 42.7839C34.249 43.9451 35.1948 44.8766 36.353 44.8762C36.362 44.8762 36.3712 44.8762 36.3804 44.8761C37.5508 44.8613 38.4875 43.9005 38.4727 42.73L38.379 35.3143C38.5052 34.5187 40.6383 21.1049 40.6516 20.7875L47.2366 13.6998C47.8734 13.0139 47.8341 11.9414 47.1481 11.3039Z" fill="white"/>
<path d="M36.4432 15.0422C38.6589 15.3937 40.741 13.8831 41.0926 11.6656C41.2896 10.4228 40.8996 9.22172 40.1279 8.34483C40.0969 8.16784 40.0463 7.9902 39.976 7.81682C39.5811 6.84259 38.4713 5.14255 37.0076 4.89313C36.8599 4.86806 36.711 4.93099 36.6264 5.05455C36.5417 5.17811 36.5368 5.33937 36.6135 5.46801C36.7754 5.73987 36.8938 6.00158 36.9809 6.25313C36.2734 5.99732 35.499 5.88146 34.8122 6.11056C34.6701 6.15808 34.5685 6.28377 34.5519 6.43257C34.5355 6.58153 34.6073 6.72624 34.7355 6.80358C35.005 6.96615 35.2315 7.14018 35.4262 7.31979C34.2135 7.86123 33.2896 8.98443 33.0664 10.3928C32.7147 12.6105 34.2273 14.6909 36.4432 15.0422Z" fill="white"/>
<path d="M22.437 28.1714C20.7334 17.2246 20.7334 17.2246 20.7334 17.2246L25.6357 6.65092C26.1087 5.63113 25.6652 4.42141 24.6454 3.94863C23.6261 3.47585 22.4159 3.9188 21.9431 4.93892L17.7114 14.0666C17.0357 13.8504 16.3129 13.7908 15.5989 13.904L12.62 14.3763C11.914 14.4884 11.252 14.7637 10.6805 15.1709L3.84122 7.80919C3.07593 6.98572 1.78853 6.93852 0.964897 7.70332C0.141592 8.46845 0.0942319 9.75618 0.859198 10.5796L8.76336 19.0874C8.76336 19.0874 9.94473 26.7723 11.4912 36.5244L11.3785 45.4256C11.3608 46.8303 12.4851 47.9837 13.89 48.0015C13.9008 48.0017 13.912 48.0017 13.9228 48.0017C15.3126 48.0017 16.4483 46.8839 16.466 45.49L16.5813 36.372C16.5833 36.2278 16.5726 36.0838 16.5502 35.9414L15.8876 31.7634L18.4087 31.2819L21.2454 34.7706V42.0524C21.2454 43.4573 22.3843 44.5962 23.7892 44.5962C25.1941 44.5962 26.333 43.4573 26.333 42.0524V33.867C26.333 33.2825 26.1318 32.7157 25.763 32.262L22.437 28.1714Z" fill="white"/>
</g>
<defs>
<clipPath id="clip0_1_368">
<rect width="48" height="48" fill="white" transform="translate(0.00219727 0.00195312)"/>
</clipPath>
</defs>
</svg>
