<svg width="49" height="49" viewBox="0 0 49 49" fill="none" xmlns="http://www.w3.org/2000/svg">
<g clip-path="url(#clip0_1_323)">
<path d="M40.9689 7.03516C31.5919 -2.34179 16.4137 -2.34311 7.03541 7.03516C-2.34155 16.4121 -2.34286 31.5904 7.03541 40.9686C16.4124 50.3456 31.5905 50.3469 40.9689 40.9686C50.3459 31.5919 50.3474 16.4135 40.9689 7.03516ZM24.9721 34.0128C24.9721 35.614 23.1574 36.5465 21.8555 35.6165L15.362 30.9783H11.9892C10.9008 30.9783 10.0184 30.0959 10.0184 29.0074V18.9966C10.0184 17.9081 10.9008 17.0257 11.9892 17.0257H15.362L21.8555 12.3875C23.1586 11.4567 24.9721 12.3915 24.9721 13.9912V34.0128ZM37.4087 25.6116C38.1783 26.3813 38.1783 27.6292 37.4087 28.3988C36.6391 29.1685 35.3911 29.1685 34.6215 28.3988L33.0119 26.7892L31.4024 28.3988C30.6327 29.1685 29.3848 29.1685 28.6151 28.3988C27.8455 27.6291 27.8455 26.3812 28.6151 25.6116L30.2247 24.002L28.6151 22.3923C27.8455 21.6226 27.8455 20.3747 28.6151 19.6051C29.3848 18.8354 30.6327 18.8354 31.4024 19.6051L33.0119 21.2147L34.6215 19.6051C35.3911 18.8354 36.6391 18.8354 37.4087 19.6051C38.1783 20.3748 38.1783 21.6227 37.4087 22.3923L35.7991 24.002L37.4087 25.6116Z" fill="white"/>
</g>
<defs>
<clipPath id="clip0_1_323">
<rect width="48" height="48" fill="white" transform="translate(0.00219727 0.00195312)"/>
</clipPath>
</defs>
</svg>
