<svg width="49" height="49" viewBox="0 0 49 49" fill="none" xmlns="http://www.w3.org/2000/svg">
<g clip-path="url(#clip0_1_307)">
<path d="M47.4249 29.5743C47.3819 28.9493 47.2153 28.3391 46.9346 27.779C46.6539 27.219 46.2648 26.7202 45.7899 26.3118L40.6449 21.8643L37.6899 25.2843L42.8349 29.7318C42.8862 29.7754 42.9184 29.8372 42.9249 29.9043C42.9282 29.972 42.9069 30.0386 42.8649 30.0918L40.0974 33.2868C40.0628 33.3286 40.0159 33.3584 39.9633 33.3719C39.9108 33.3853 39.8553 33.3818 39.8049 33.3618L21.4749 25.9593C20.5514 25.5846 19.5336 25.5091 18.5649 25.7432C17.5962 25.9773 16.7254 26.5093 16.0749 27.2643L13.1349 30.6618L16.5549 33.6168L19.4949 30.2118C19.5301 30.1709 19.5775 30.1424 19.6301 30.1302C19.6827 30.1181 19.7377 30.123 19.7874 30.1443L38.1174 37.5468C39.0393 37.9238 40.0566 38.0006 41.0247 37.7663C41.9927 37.5321 42.8623 36.9986 43.5099 36.2418L46.2774 33.0393C46.6892 32.5669 47.0028 32.0172 47.1998 31.4222C47.3968 30.8273 47.4733 30.1991 47.4249 29.5743V29.5743Z" fill="white"/>
<path d="M31.0898 24.8937C31.7684 25.4838 32.6377 25.8083 33.537 25.8072C33.6293 25.8072 33.7223 25.8072 33.8153 25.7975C34.307 25.7629 34.787 25.631 35.2274 25.4096C35.6679 25.1882 36.06 24.8815 36.381 24.5075L39.6855 20.6825C40.3349 19.9292 40.6588 18.9491 40.5863 17.9572C40.5137 16.9653 40.0506 16.0427 39.2985 15.392L22.5405 0.914726C21.788 0.264854 20.8081 -0.0595314 19.8164 0.0129005C18.8248 0.0853323 17.9024 0.548651 17.2523 1.30098L13.9478 5.12598C13.2987 5.87967 12.975 6.85996 13.0476 7.85196C13.1201 8.84396 13.583 9.76672 14.3348 10.418L31.0898 24.8937Z" fill="white"/>
<path d="M11.205 30.9771C11.1306 30.9125 11.0442 30.8632 10.9508 30.832C10.8573 30.8008 10.7586 30.7884 10.6603 30.7953C10.5621 30.8023 10.4661 30.8286 10.378 30.8726C10.2899 30.9167 10.2113 30.9776 10.1468 31.0521L1.60426 40.9431C1.07024 41.5615 0.724927 42.3203 0.60933 43.1291C0.493732 43.938 0.612707 44.7631 0.952125 45.5064C1.29154 46.2497 1.83714 46.8799 2.52414 47.3223C3.21113 47.7647 4.01065 48.0006 4.82776 48.0021C4.93276 48.0021 5.03926 47.9983 5.14501 47.9901C5.70458 47.9511 6.25084 47.8013 6.75206 47.5495C7.25328 47.2977 7.69948 46.9488 8.06476 46.5231L16.608 36.6336C16.7382 36.4834 16.8034 36.2876 16.7894 36.0893C16.7753 35.891 16.6831 35.7064 16.533 35.5761L11.205 30.9771Z" fill="white"/>
</g>
<defs>
<clipPath id="clip0_1_307">
<rect width="48" height="48" fill="white" transform="translate(0.00219727 0.00195312)"/>
</clipPath>
</defs>
</svg>
