<svg width="49" height="49" viewBox="0 0 49 49" fill="none" xmlns="http://www.w3.org/2000/svg">
<g clip-path="url(#clip0_1_362)">
<path d="M6.52619 25.7691C8.47778 23.4406 11.3238 22.1785 14.2212 22.1785C18.8247 22.1785 20.6407 25.0754 22.4993 24.9207C24.7547 13.6437 24.4709 15.4106 24.4709 14.1582C24.4709 8.73008 20.0552 4.31445 14.6271 4.31445C9.199 4.31445 4.78337 8.73008 4.78337 14.1582C4.78337 15.3954 4.51872 13.4103 6.52619 25.7691ZM14.6271 7.12695C18.2881 7.12695 21.3031 9.93945 21.6274 13.517H7.62681C7.95119 9.93945 10.9662 7.12695 14.6271 7.12695Z" fill="white"/>
<path d="M37.1814 24.4688L41.7639 28.5076L42.7586 24.0929C43.3839 21.3198 41.6355 18.5551 38.8624 17.9298L37.0333 17.5173L40.1458 3.70789L41.5174 4.01633C42.2743 4.18686 43.0276 3.71221 43.1983 2.95414C43.3689 2.19664 42.8936 1.44383 42.1352 1.27321L36.648 0.0366448C35.8905 -0.13398 35.1377 0.341332 34.9671 1.09883C34.7964 1.85633 35.2718 2.60914 36.0302 2.77977L37.4018 3.08914L34.2893 16.8995L32.4602 16.487C29.684 15.8612 26.925 17.5974 26.2971 20.3832L25.6558 23.2266C29.3637 21.1615 33.9917 21.6589 37.1814 24.4688Z" fill="white"/>
<path d="M35.3215 26.5791C32.8671 24.4154 29.2512 24.1717 26.5277 25.9867L25.219 26.8595C23.5662 27.961 21.4671 28.0341 19.7421 27.0479L17.8099 25.9445C14.6916 24.1617 10.7503 24.9438 8.53993 27.7491L3.73993 33.8457H43.5659L35.3215 26.5791Z" fill="white"/>
<path d="M0.00219727 36.6582V46.5957C0.00219727 47.372 0.632197 48.002 1.40845 48.002H46.5959C47.3722 48.002 48.0022 47.372 48.0022 46.5957V36.6582H0.00219727Z" fill="white"/>
</g>
<defs>
<clipPath id="clip0_1_362">
<rect width="48" height="48" fill="white" transform="translate(0.00219727 0.00195312)"/>
</clipPath>
</defs>
</svg>
