<svg width="49" height="49" viewBox="0 0 49 49" fill="none" xmlns="http://www.w3.org/2000/svg">
<g clip-path="url(#clip0_1_375)">
<path d="M47.9937 16.002H0.00219727V18.002C0.00219727 19.0628 0.423625 20.0802 1.17377 20.8304C1.92392 21.5805 2.94133 22.002 4.0022 22.002H10.0022C11.0631 22.002 12.0805 21.5805 12.8306 20.8304C13.5808 20.0802 14.0022 19.0628 14.0022 18.002C14.0022 19.0628 14.4236 20.0802 15.1738 20.8304C15.9239 21.5805 16.9413 22.002 18.0022 22.002H30.0022C31.0631 22.002 32.0805 21.5805 32.8306 20.8304C33.5808 20.0802 34.0022 19.0628 34.0022 18.002C34.0022 19.0628 34.4236 20.0802 35.1738 20.8304C35.9239 21.5805 36.9413 22.002 38.0022 22.002H44.0022C45.0631 22.002 46.0805 21.5805 46.8306 20.8304C47.5808 20.0802 48.0022 19.0628 48.0022 18.002V16.002H47.9937Z" fill="white"/>
<path d="M47.5106 14.002L43.9251 1.45195C43.8056 1.03417 43.5533 0.666666 43.2063 0.405048C42.8594 0.143429 42.4367 0.00192889 42.0021 0.00195313L32.8416 0.00195313L35.6416 14.002H47.5106Z" fill="white"/>
<path d="M15.1627 0.00195313H6.00218C5.56764 0.00192889 5.14492 0.143429 4.79796 0.405048C4.451 0.666666 4.19868 1.03417 4.07918 1.45195L0.493683 14.002H12.3627L15.1627 0.00195313Z" fill="white"/>
<path d="M28.7629 0.00195312H19.2419L16.4419 14.002H31.5629L28.7629 0.00195312Z" fill="white"/>
<path d="M38.002 24.0017C36.5253 24.0029 35.1004 23.4574 34.002 22.4702C32.9037 23.4574 31.4788 24.0029 30.002 24.0017H18.002C16.5253 24.0029 15.1004 23.4574 14.002 22.4702C12.9037 23.4574 11.4788 24.0029 10.002 24.0017H4.00204C3.32027 24.0003 2.64379 23.8819 2.00204 23.6517V46.0017C2.00204 46.5322 2.21276 47.0409 2.58783 47.4159C2.9629 47.791 3.47161 48.0017 4.00204 48.0017H8.00204V30.0017C8.00204 29.4713 8.21276 28.9626 8.58783 28.5875C8.9629 28.2124 9.47161 28.0017 10.002 28.0017H20.002C20.5325 28.0017 21.0412 28.2124 21.4163 28.5875C21.7913 28.9626 22.002 29.4713 22.002 30.0017V48.0017H44.002C44.5325 48.0017 45.0412 47.791 45.4163 47.4159C45.7913 47.0409 46.002 46.5322 46.002 46.0017V23.6517C45.3603 23.8819 44.6838 24.0003 44.002 24.0017H38.002ZM40.002 36.0017C40.002 36.5321 39.7913 37.0409 39.4163 37.4159C39.0412 37.791 38.5325 38.0017 38.002 38.0017H28.002C27.4716 38.0017 26.9629 37.791 26.5878 37.4159C26.2128 37.0409 26.002 36.5321 26.002 36.0017V30.0017C26.002 29.4713 26.2128 28.9626 26.5878 28.5875C26.9629 28.2124 27.4716 28.0017 28.002 28.0017H38.002C38.5325 28.0017 39.0412 28.2124 39.4163 28.5875C39.7913 28.9626 40.002 29.4713 40.002 30.0017V36.0017Z" fill="white"/>
</g>
<defs>
<clipPath id="clip0_1_375">
<rect width="48" height="48" fill="white" transform="translate(0.00219727 0.00195312)"/>
</clipPath>
</defs>
</svg>
