<svg width="49" height="49" viewBox="0 0 49 49" fill="none" xmlns="http://www.w3.org/2000/svg">
<g clip-path="url(#clip0_1_347)">
<path d="M24.0022 0.00195312C10.7377 0.00195312 0.00219727 10.736 0.00219727 24.002C0.00219727 37.2665 10.7363 48.002 24.0022 48.002C37.2667 48.002 48.0022 37.2679 48.0022 24.002C48.0022 10.7375 37.2681 0.00195312 24.0022 0.00195312ZM32.9343 25.76H28.4421V35.2933C28.4421 36.1769 27.7258 36.8933 26.8421 36.8933H21.1623C20.2787 36.8933 19.5623 36.177 19.5623 35.2933V25.76H15.07C13.7374 25.76 12.992 24.2225 13.8085 23.1758L22.7406 11.7263C23.3815 10.905 24.6243 10.9068 25.2637 11.7263L34.1958 23.1758C35.0126 24.2227 34.2669 25.76 32.9343 25.76Z" fill="white"/>
</g>
<defs>
<clipPath id="clip0_1_347">
<rect width="48" height="48" fill="white" transform="translate(0.00219727 0.00195312)"/>
</clipPath>
</defs>
</svg>
