<svg width="49" height="49" viewBox="0 0 49 49" fill="none" xmlns="http://www.w3.org/2000/svg">
<g clip-path="url(#clip0_1_336)">
<path d="M22.5989 15.4463V8.53467C20.7806 8.78151 19.1101 9.49991 17.715 10.5625L22.5989 15.4463Z" fill="white"/>
<path d="M15.7234 12.5518C14.6608 13.9469 13.9424 15.6173 13.6955 17.4357H20.6073L15.7234 12.5518Z" fill="white"/>
<path d="M25.4084 8.53467V15.4463L30.2924 10.5625C28.8973 9.49991 27.2268 8.78151 25.4084 8.53467Z" fill="white"/>
<path d="M13.6017 20.2476H22.5976V28.4996H13.6017V20.2476Z" fill="white"/>
<path d="M13.6017 31.312H22.5976V39.5641H13.6017V31.312Z" fill="white"/>
<path d="M25.4084 20.2476H34.4043V28.4996H25.4084V20.2476Z" fill="white"/>
<path d="M25.4084 31.312H34.4043V39.5641H25.4084V31.312Z" fill="white"/>
<path d="M27.4005 17.4357H34.3122C34.0653 15.6173 33.3469 13.9469 32.2844 12.5518L27.4005 17.4357Z" fill="white"/>
<path d="M24.0038 0.00195312C13.6156 0.00195312 5.16422 8.45333 5.16422 18.8416V48.002H42.8435V18.8416C42.8435 8.45333 34.3921 0.00195313 24.0038 0.00195313V0.00195312ZM37.2185 42.377H10.7892V18.8416C10.7892 11.555 16.7172 5.62695 24.0038 5.62695C31.2905 5.62695 37.2185 11.555 37.2185 18.8416V42.377Z" fill="white"/>
</g>
<defs>
<clipPath id="clip0_1_336">
<rect width="48" height="48" fill="white" transform="translate(0.00219727 0.00195312)"/>
</clipPath>
</defs>
</svg>
