<svg width="49" height="49" viewBox="0 0 49 49" fill="none" xmlns="http://www.w3.org/2000/svg">
<g clip-path="url(#clip0_1_352)">
<path d="M40.8772 17.7944L32.4397 26.2319V30.2096L40.8772 21.7721V17.7944Z" fill="white"/>
<path d="M32.4397 34.1869V41.4395H40.8772V25.7495L32.4397 34.1869Z" fill="white"/>
<path d="M40.8772 13.817V6.56445H32.4397V22.2545L40.8772 13.817Z" fill="white"/>
<path d="M46.5022 0.00195312H25.4084V48.002H46.5022C47.2788 48.002 47.9084 47.3723 47.9084 46.5957V1.4082C47.9084 0.631578 47.2788 0.00195312 46.5022 0.00195312ZM43.6897 42.8457C43.6897 43.6223 43.0601 44.252 42.2834 44.252H31.0334C30.2568 44.252 29.6272 43.6223 29.6272 42.8457V5.1582C29.6272 4.38158 30.2568 3.75195 31.0334 3.75195H42.2834C43.0601 3.75195 43.6897 4.38158 43.6897 5.1582V42.8457Z" fill="white"/>
<path d="M15.5647 17.7944L7.1272 26.2319V30.2094L15.5647 21.7719V17.7944Z" fill="white"/>
<path d="M15.5647 13.817V6.56445H7.1272V22.2545L15.5647 13.817Z" fill="white"/>
<path d="M1.5022 0.00195312C0.725572 0.00195312 0.0959473 0.631578 0.0959473 1.4082V46.5957C0.0959473 47.3723 0.725572 48.002 1.5022 48.002H22.5959V0.00195312H1.5022ZM18.3772 42.8457C18.3772 43.6223 17.7476 44.252 16.9709 44.252H5.72095C4.94432 44.252 4.3147 43.6223 4.3147 42.8457V5.1582C4.3147 4.38158 4.94432 3.75195 5.72095 3.75195H16.9709C17.7476 3.75195 18.3772 4.38158 18.3772 5.1582V42.8457Z" fill="white"/>
<path d="M7.1272 34.1869V41.4395H15.5647V25.7495L7.1272 34.1869Z" fill="white"/>
</g>
<defs>
<clipPath id="clip0_1_352">
<rect width="48" height="48" fill="white" transform="translate(0.00219727 0.00195312)"/>
</clipPath>
</defs>
</svg>
