<svg width="49" height="49" fill="none" xmlns="http://www.w3.org/2000/svg"><path d="M15.698 6.146c-.864-1.296-2.592-1.68-3.888-.816-.048.048-.096.048-.144.096A17.631 17.631 0 0 0 4.85 19.202h19.152L15.698 6.146Z" fill="#fff"/><path d="M41.954 12.05h-3.6c-2.64 0-4.8 2.16-4.8 4.8v4.8H4.85c0 3.792 1.728 7.2 4.512 9.792-3.216.768-5.232 4.032-4.464 7.296.768 3.264 4.032 5.232 7.296 4.464 3.216-.768 5.232-4.032 4.464-7.296-.048-.192-.096-.384-.144-.528 3.36.912 6.864.912 10.224 0-.192.624-.336 1.248-.336 1.872 0 3.312 2.64 6 5.952 6s6-2.64 6-5.952a6.009 6.009 0 0 0-4.512-5.808c2.784-2.544 4.512-6 4.512-9.792v-4.896h3.6c.672 0 1.2-.528 1.2-1.2v-2.4c0-.624-.528-1.152-1.2-1.152ZM10.85 39.554a2.377 2.377 0 0 1-2.4-2.4c0-1.344 1.056-2.4 2.4-2.4 1.344 0 2.4 1.056 2.4 2.4 0 1.344-1.104 2.4-2.4 2.4Zm23.904-2.4c0 1.344-1.056 2.4-2.4 2.4a2.377 2.377 0 0 1-2.4-2.4c0-1.344 1.056-2.4 2.4-2.4 1.344 0 2.4 1.104 2.4 2.4Z" fill="#fff"/></svg>