<svg width="49" height="49" fill="none" xmlns="http://www.w3.org/2000/svg"><g clip-path="url(#a)" fill="#fff"><path d="M27.147 36.344H11.16c-.63 0-1.141.51-1.141 1.141v7.994c0 .63.51 1.14 1.14 1.14h15.988c.63 0 1.14-.51 1.14-1.14v-7.994c0-.63-.51-1.14-1.14-1.14Zm19.714 0H30.874c-.63 0-1.141.51-1.141 1.141v7.994c0 .63.51 1.14 1.14 1.14h15.988c.63 0 1.141-.51 1.141-1.14v-7.994c0-.63-.51-1.14-1.14-1.14ZM11.16 23.313h15.987c.63 0 1.14-.51 1.14-1.141v-7.994c0-.63-.51-1.14-1.14-1.14H11.16c-.63 0-1.141.51-1.141 1.14v7.994c0 .63.51 1.14 1.14 1.14Zm35.701-10.276H30.874c-.63 0-1.141.51-1.141 1.141v7.994c0 .63.51 1.14 1.14 1.14h15.988c.63 0 1.141-.51 1.141-1.14v-7.994c0-.63-.51-1.14-1.14-1.14Zm-26.09-1.378H36.76c.63 0 1.14-.51 1.14-1.14V2.524c0-.63-.51-1.141-1.14-1.141H20.77c-.63 0-1.14.51-1.14 1.14v7.994c0 .63.51 1.141 1.14 1.141Zm-.811 14.173v7.994c0 .63.512 1.14 1.142 1.14h15.987c.63 0 1.141-.51 1.141-1.14v-7.994c0-.63-.51-1.141-1.14-1.141H21.101c-.63 0-1.141.51-1.141 1.14Zm-1.688 7.994v-7.994c0-.63-.511-1.141-1.141-1.141H1.143c-.63 0-1.14.51-1.14 1.14v7.995c0 .63.51 1.14 1.14 1.14h15.988c.63 0 1.14-.51 1.14-1.14Z"/></g><defs><clipPath id="a"><path fill="#fff" transform="translate(.002 .002)" d="M0 0h48v48H0z"/></clipPath></defs></svg>