<svg width="49" height="49" fill="none" xmlns="http://www.w3.org/2000/svg"><g clip-path="url(#a)"><path d="M24.002.002c-11.166 0-20.21 1.263-20.21 10.105V35.37c0 2.236.985 4.22 2.526 5.609v4.497a2.534 2.534 0 0 0 2.526 2.526h2.527a2.526 2.526 0 0 0 2.526-2.526v-2.527h20.21v2.527a2.526 2.526 0 0 0 2.527 2.526h2.526a2.534 2.534 0 0 0 2.526-2.526v-4.497c1.541-1.39 2.527-3.373 2.527-5.609V10.107c0-8.842-9.044-10.105-20.21-10.105ZM12.634 37.897a3.784 3.784 0 0 1-3.79-3.79 3.784 3.784 0 0 1 3.79-3.79 3.784 3.784 0 0 1 3.79 3.79 3.784 3.784 0 0 1-3.79 3.79Zm22.737 0a3.784 3.784 0 0 1-3.79-3.79 3.784 3.784 0 0 1 3.79-3.79 3.784 3.784 0 0 1 3.79 3.79 3.784 3.784 0 0 1-3.79 3.79Zm3.79-15.158H8.843V10.107H39.16V22.74Z" fill="#fff"/></g><defs><clipPath id="a"><path fill="#fff" transform="translate(.002 .002)" d="M0 0h48v48H0z"/></clipPath></defs></svg>