<svg width="49" height="49" fill="none" xmlns="http://www.w3.org/2000/svg"><g clip-path="url(#a)" fill="#fff"><path d="M30.002 30.658H3.752a3.75 3.75 0 0 0-3.75 3.75v.469h5.156a1.406 1.406 0 0 1 0 2.813H.002v2.812c0 .777.63 1.406 1.406 1.406h30.938c.777 0 1.406-.63 1.406-1.406v-2.813h-5.156a1.406 1.406 0 0 1 0-2.812h5.156v-.469a3.75 3.75 0 0 0-3.75-3.75Zm-8.906 7.032h-8.438a1.406 1.406 0 0 1 0-2.813h8.438a1.406 1.406 0 1 1 0 2.813ZM6.291 22.145l-1.71 5.7h24.593l-1.71-5.7a5.124 5.124 0 0 0-4.94-3.674H11.23a5.125 5.125 0 0 0-4.939 3.674ZM42.846 45.19h-2.344V22.502H37.69V45.19h-2.344a1.406 1.406 0 0 0 0 2.812h7.5a1.406 1.406 0 0 0 0-2.813ZM39.525 6.564h-1.409l.003 1.444c0 .33.003.932.006 1.449.5-.003 1.078-.006 1.4-.006.808 0 1.49-.66 1.49-1.443 0-.782-.682-1.444-1.49-1.444Z"/><path d="M44.72.002H33.47a3.285 3.285 0 0 0-3.28 3.281v13.125a3.285 3.285 0 0 0 3.28 3.281h11.25a3.285 3.285 0 0 0 3.282-3.28V3.282a3.285 3.285 0 0 0-3.281-3.28Zm-5.194 11.325c-.324 0-.91.002-1.412.005v2.732a.938.938 0 0 1-1.875 0V5.628a.937.937 0 0 1 .937-.938h2.35c1.855 0 3.365 1.49 3.365 3.319 0 1.83-1.51 3.319-3.365 3.319ZM6.096 48.002a2.812 2.812 0 0 1-2.813-2.813v-.468h5.625v.469a2.812 2.812 0 0 1-2.812 2.812Zm21.562 0a2.813 2.813 0 0 1-2.812-2.813v-.468h5.625v.469a2.812 2.812 0 0 1-2.813 2.812Z"/></g><defs><clipPath id="a"><path fill="#fff" transform="translate(.002 .002)" d="M0 0h48v48H0z"/></clipPath></defs></svg>