<svg width="49" height="49" fill="none" xmlns="http://www.w3.org/2000/svg"><g clip-path="url(#a)"><path fill-rule="evenodd" clip-rule="evenodd" d="M46.284 34.083 30.85 43.668c-1.495.919-3.13 1.149-4.87.682l-13.508-3.62a.85.85 0 0 0-.643.085L5.223 44.63l-5.22-9.035 12.28-7.111c1.725-.999 3.59-1.836 5.56-1.198.582.19 1.276.43 2.008.683 2.448.844 5.495 1.896 8.621 2.582.489.107.907.413 1.177.861.304.494.389 1.094.24 1.647a2.065 2.065 0 0 1-2.374 1.487l-10.56-2.824a.85.85 0 0 0-1.038.597.85.85 0 0 0 .599 1.036l10.42 2.79c2.334.627 4.263.736 6.647-.654l7.845-4.567c3.31-1.93 5.6-1.506 6.327-.296.554.926.224 2.41-1.47 3.455Zm-14.47-20.986L23.392 23.51l.879-7.472v-.007a.01.01 0 0 0-.002-.001h-5.96l7.963-10.2-.42 7.267h5.962Zm-6.752-9.723c-6.233 0-11.298 5.066-11.298 11.294 0 6.229 5.065 11.295 11.298 11.295 6.227 0 11.293-5.066 11.293-11.295 0-6.228-5.066-11.294-11.293-11.294Z" fill="#fff"/></g><defs><clipPath id="a"><path fill="#fff" transform="translate(.002 .002)" d="M0 0h48v48H0z"/></clipPath></defs></svg>