<svg width="48" height="48" fill="none" xmlns="http://www.w3.org/2000/svg"><g clip-path="url(#a)"><path d="M48 4.219A4.223 4.223 0 0 0 43.782 0a4.223 4.223 0 0 0-4.22 4.219c0 1.83 1.18 3.377 2.813 3.96v3.071h-2.812v2.813h-5.719V11.25h-2.813v1.77c-1.407-.7-3.367-1.451-5.624-1.688V8.437h-2.813v2.895c-2.258.237-4.217.989-5.625 1.688v-1.77h-2.813v2.813H8.438V11.25H5.625V8.178c1.634-.582 2.813-2.128 2.813-3.96A4.223 4.223 0 0 0 4.219 0 4.223 4.223 0 0 0 0 4.219c0 1.83 1.18 3.377 2.813 3.96v3.071H0V48h8.438v-2.813h5.718V48h2.813v-2.813h5.625V48h2.813v-2.813h5.625V48h2.812v-2.813h5.719V48H48V11.25h-2.812V8.178C46.82 7.596 48 6.05 48 4.218ZM8.438 42.375v-25.5l5.718-.001v25.501H8.438Zm8.531 0V16.227c.965-.595 3.082-1.728 5.625-2.064v11.243h-2.813v8.438h2.813v8.531h-5.625Zm8.438 0v-8.531h2.812v-8.438h-2.813V14.163c2.543.336 4.66 1.469 5.626 2.064v26.148h-5.625Zm8.437 0v-25.5h5.719v25.5h-5.719Z" fill="#fff"/></g><defs><clipPath id="a"><path fill="#fff" d="M0 0h48v48H0z"/></clipPath></defs></svg>