<svg width="49" height="49" fill="none" xmlns="http://www.w3.org/2000/svg"><g clip-path="url(#a)" fill="#fff"><path d="M13.814 12.19a4.877 4.877 0 0 0 1.22-9.269c.234-.215.506-.424.83-.62a.461.461 0 0 0-.092-.831c-.824-.275-1.754-.137-2.603.17a5.09 5.09 0 0 1 .44-.941.46.46 0 0 0-.472-.69c-1.757.299-3.09 2.34-3.563 3.509a3.125 3.125 0 0 0-.183.634 4.876 4.876 0 0 0 4.423 8.04Zm33.334-.886a1.696 1.696 0 0 0-2.396.088l-5.7 6.135a3.815 3.815 0 0 0-1.614-.664l-2.482-.394a3.816 3.816 0 0 0-1.76.136L29.672 9a1.696 1.696 0 0 0-3.076 1.426l4.085 8.811c-.089.325.024-.338-1.42 9.118L27.03 31.1l.065.08a4.26 4.26 0 0 1 .955 2.688v8.169c.028 0 .055.004.083.004a2.12 2.12 0 0 0 2.12-2.12v-6.066l2.363-2.907 2.1.401-.552 3.48a2.123 2.123 0 0 0-.026.36l.096 7.596a2.119 2.119 0 0 0 2.119 2.092h.027a2.12 2.12 0 0 0 2.093-2.146l-.094-7.416c.126-.795 2.26-14.21 2.273-14.526l6.585-7.088a1.696 1.696 0 0 0-.089-2.396Z"/><path d="M36.443 15.042a4.063 4.063 0 0 0 3.685-6.697 2.603 2.603 0 0 0-.152-.528c-.395-.974-1.505-2.674-2.968-2.924a.384.384 0 0 0-.395.575c.162.272.28.534.368.785-.708-.256-1.482-.372-2.169-.142a.385.385 0 0 0-.076.693c.269.162.495.336.69.516a4.063 4.063 0 0 0 1.017 7.722ZM22.437 28.171l-1.704-10.946L25.636 6.65a2.035 2.035 0 1 0-3.693-1.712l-4.232 9.128a4.578 4.578 0 0 0-2.112-.163l-2.979.472a4.58 4.58 0 0 0-1.94.795L3.841 7.809A2.036 2.036 0 0 0 .86 10.58l7.904 8.508s1.182 7.685 2.728 17.437l-.112 8.902a2.544 2.544 0 0 0 5.087.064l.115-9.118a2.544 2.544 0 0 0-.03-.43l-.663-4.179 2.52-.481 2.837 3.489v7.281a2.544 2.544 0 0 0 5.088 0v-8.185c0-.584-.201-1.151-.57-1.605l-3.326-4.09Z"/></g><defs><clipPath id="a"><path fill="#fff" transform="translate(.002 .002)" d="M0 0h48v48H0z"/></clipPath></defs></svg>