<svg width="49" height="49" fill="none" xmlns="http://www.w3.org/2000/svg"><g clip-path="url(#a)"><path d="M40.969 7.035c-9.377-9.377-24.555-9.378-33.934 0-9.377 9.377-9.378 24.555 0 33.934 9.377 9.377 24.555 9.378 33.934 0 9.377-9.377 9.378-24.556 0-33.934ZM24.972 34.013c0 1.601-1.815 2.534-3.117 1.604l-6.493-4.639h-3.373a1.97 1.97 0 0 1-1.97-1.97V18.996a1.97 1.97 0 0 1 1.97-1.971h3.373l6.493-4.639c1.304-.93 3.117.005 3.117 1.604v20.022Zm12.437-8.401a1.971 1.971 0 0 1-2.788 2.787l-1.61-1.61-1.609 1.61a1.97 1.97 0 0 1-2.787-2.787l1.61-1.61-1.61-1.61a1.971 1.971 0 0 1 2.787-2.787l1.61 1.61 1.61-1.61a1.97 1.97 0 1 1 2.787 2.787l-1.61 1.61 1.61 1.61Z" fill="#fff"/></g><defs><clipPath id="a"><path fill="#fff" transform="translate(.002 .002)" d="M0 0h48v48H0z"/></clipPath></defs></svg>