<svg width="49" height="49" fill="none" xmlns="http://www.w3.org/2000/svg"><g clip-path="url(#a)" fill="#fff"><path d="M47.425 29.574a4.732 4.732 0 0 0-1.635-3.262l-5.145-4.448-2.955 3.42 5.145 4.448a.259.259 0 0 1 .09.172.28.28 0 0 1-.06.188l-2.768 3.195a.257.257 0 0 1-.292.075l-18.33-7.403a4.764 4.764 0 0 0-5.4 1.305l-2.94 3.398 3.42 2.955 2.94-3.405a.254.254 0 0 1 .292-.068l18.33 7.403a4.737 4.737 0 0 0 5.393-1.305l2.767-3.203a4.717 4.717 0 0 0 1.148-3.465Z"/><path d="M31.09 24.894c.678.59 1.548.914 2.447.913.092 0 .185 0 .278-.01a3.726 3.726 0 0 0 2.566-1.29l3.304-3.825a3.755 3.755 0 0 0-.387-5.29L22.54.915a3.75 3.75 0 0 0-5.288.386l-3.304 3.825a3.757 3.757 0 0 0 .387 5.292L31.09 24.894Zm-19.885 6.083a.75.75 0 0 0-1.058.075l-8.543 9.891a4.269 4.269 0 0 0 6.46 5.58l8.544-9.89a.75.75 0 0 0-.075-1.057l-5.328-4.599Z"/></g><defs><clipPath id="a"><path fill="#fff" transform="translate(.002 .002)" d="M0 0h48v48H0z"/></clipPath></defs></svg>