<svg width="49" height="49" fill="none" xmlns="http://www.w3.org/2000/svg"><g clip-path="url(#a)" fill="#fff"><path d="M6.526 25.77a10.045 10.045 0 0 1 7.695-3.591c4.604 0 6.42 2.896 8.278 2.742 2.256-11.277 1.972-9.51 1.972-10.763 0-5.428-4.416-9.844-9.844-9.844-5.428 0-9.844 4.416-9.844 9.844 0 1.237-.264-.748 1.743 11.611Zm8.101-18.643c3.661 0 6.676 2.812 7 6.39h-14c.324-3.578 3.34-6.39 7-6.39Zm22.554 17.342 4.583 4.039.995-4.415a5.162 5.162 0 0 0-3.897-6.163l-1.829-.413 3.113-13.81 1.371.31a1.406 1.406 0 1 0 .618-2.744L36.648.037a1.406 1.406 0 1 0-.618 2.743l1.372.31-3.113 13.81-1.829-.413a5.152 5.152 0 0 0-6.163 3.896l-.641 2.844a10.056 10.056 0 0 1 11.525 1.242Z"/><path d="M35.322 26.58a7.241 7.241 0 0 0-8.794-.593l-1.309.873a5.184 5.184 0 0 1-5.477.188l-1.932-1.103a7.233 7.233 0 0 0-9.27 1.804l-4.8 6.097h39.826l-8.245-7.267ZM.002 36.658v9.938c0 .776.63 1.406 1.406 1.406h45.188c.776 0 1.406-.63 1.406-1.406v-9.938h-48Z"/></g><defs><clipPath id="a"><path fill="#fff" transform="translate(.002 .002)" d="M0 0h48v48H0z"/></clipPath></defs></svg>