<svg width="49" height="49" fill="none" xmlns="http://www.w3.org/2000/svg"><g clip-path="url(#a)" fill="#fff"><path d="M47.994 16.002H.002v2a4 4 0 0 0 4 4h6a4 4 0 0 0 4-4 4 4 0 0 0 4 4h12a4 4 0 0 0 4-4 4 4 0 0 0 4 4h6a4 4 0 0 0 4-4v-2h-.008Zm-.484-2-3.585-12.55a2 2 0 0 0-1.923-1.45h-9.16l2.8 14H47.51Zm-32.347-14h-9.16a2 2 0 0 0-1.924 1.45L.494 14.002h11.869l2.8-14Zm13.6 0h-9.521l-2.8 14h15.12l-2.8-14Zm9.239 24a5.977 5.977 0 0 1-4-1.532 5.976 5.976 0 0 1-4 1.532h-12a5.977 5.977 0 0 1-4-1.532 5.976 5.976 0 0 1-4 1.532h-6a5.96 5.96 0 0 1-2-.35v22.35a2 2 0 0 0 2 2h4v-18a2 2 0 0 1 2-2h10a2 2 0 0 1 2 2v18h22a2 2 0 0 0 2-2v-22.35a5.96 5.96 0 0 1-2 .35h-6Zm2 12a2 2 0 0 1-2 2h-10a2 2 0 0 1-2-2v-6a2 2 0 0 1 2-2h10a2 2 0 0 1 2 2v6Z"/></g><defs><clipPath id="a"><path fill="#fff" transform="translate(.002 .002)" d="M0 0h48v48H0z"/></clipPath></defs></svg>