<svg width="49" height="49" fill="none" xmlns="http://www.w3.org/2000/svg"><g clip-path="url(#a)"><path d="M24.002.002c-13.264 0-24 10.734-24 24 0 13.265 10.734 24 24 24 13.265 0 24-10.734 24-24 0-13.264-10.734-24-24-24Zm8.932 25.758h-4.492v9.533a1.6 1.6 0 0 1-1.6 1.6h-5.68a1.6 1.6 0 0 1-1.6-1.6V25.76H15.07c-1.333 0-2.078-1.538-1.261-2.584l8.932-11.45a1.6 1.6 0 0 1 2.523 0l8.932 11.45c.817 1.047.07 2.584-1.262 2.584Z" fill="#fff"/></g><defs><clipPath id="a"><path fill="#fff" transform="translate(.002 .002)" d="M0 0h48v48H0z"/></clipPath></defs></svg>