<svg width="49" height="49" fill="none" xmlns="http://www.w3.org/2000/svg"><g clip-path="url(#a)" fill="#fff"><path d="m40.877 17.794-8.437 8.438v3.978l8.437-8.438v-3.978ZM32.44 34.187v7.253h8.437V25.75l-8.437 8.437Zm8.437-20.37V6.564H32.44v15.69l8.437-8.437Z"/><path d="M46.502.002H25.408v48h21.094c.777 0 1.406-.63 1.406-1.406V1.408c0-.776-.63-1.406-1.406-1.406ZM43.69 42.846c0 .776-.63 1.406-1.407 1.406h-11.25c-.776 0-1.406-.63-1.406-1.406V5.158c0-.776.63-1.406 1.406-1.406h11.25c.777 0 1.407.63 1.407 1.406v37.688ZM15.565 17.794l-8.438 8.438v3.977l8.438-8.437v-3.978Zm0-3.977V6.564H7.127v15.69l8.438-8.437Z"/><path d="M1.502.002C.726.002.096.632.096 1.408v45.188c0 .776.63 1.406 1.406 1.406h21.094v-48H1.502Zm16.875 42.844c0 .776-.63 1.406-1.406 1.406H5.72c-.777 0-1.406-.63-1.406-1.406V5.158c0-.776.63-1.406 1.406-1.406h11.25c.777 0 1.406.63 1.406 1.406v37.688Z"/><path d="M7.127 34.187v7.253h8.438V25.75l-8.438 8.437Z"/></g><defs><clipPath id="a"><path fill="#fff" transform="translate(.002 .002)" d="M0 0h48v48H0z"/></clipPath></defs></svg>