<svg width="49" height="49" fill="none" xmlns="http://www.w3.org/2000/svg"><g clip-path="url(#a)" fill="#fff"><path d="M22.599 15.446V8.535a10.35 10.35 0 0 0-4.884 2.027l4.884 4.884Zm-6.876-2.894a10.35 10.35 0 0 0-2.028 4.884h6.912l-4.884-4.884Zm9.685-4.017v6.911l4.884-4.883a10.35 10.35 0 0 0-4.884-2.028ZM13.602 20.248h8.996V28.5h-8.996v-8.252Zm0 11.064h8.996v8.252h-8.996v-8.252Zm11.806-11.064h8.996V28.5h-8.996v-8.252Zm0 11.064h8.996v8.252h-8.996v-8.252ZM27.4 17.436h6.912a10.352 10.352 0 0 0-2.028-4.884l-4.883 4.884Z"/><path d="M24.004.002c-10.388 0-18.84 8.451-18.84 18.84v29.16h37.68v-29.16c0-10.389-8.452-18.84-18.84-18.84Zm13.214 42.375H10.79V18.842c0-7.287 5.928-13.215 13.215-13.215s13.214 5.928 13.214 13.215v23.535Z"/></g><defs><clipPath id="a"><path fill="#fff" transform="translate(.002 .002)" d="M0 0h48v48H0z"/></clipPath></defs></svg>