<svg width="16" height="16" fill="none" xmlns="http://www.w3.org/2000/svg"><path d="M14.667 11.28v2a1.332 1.332 0 0 1-1.453 1.333 13.194 13.194 0 0 1-5.754-2.046 13.001 13.001 0 0 1-4-4 13.193 13.193 0 0 1-2.046-5.78A1.333 1.333 0 0 1 2.74 1.333h2A1.333 1.333 0 0 1 6.074 2.48a8.56 8.56 0 0 0 .466 1.873 1.333 1.333 0 0 1-.3 1.407l-.846.847a10.667 10.667 0 0 0 4 4l.846-.847a1.333 1.333 0 0 1 1.407-.3 8.56 8.56 0 0 0 1.873.467 1.334 1.334 0 0 1 1.147 1.353Z" stroke="url(#a)" stroke-width="2" stroke-linecap="round" stroke-linejoin="round"/><defs><radialGradient id="a" cx="0" cy="0" r="1" gradientUnits="userSpaceOnUse" gradientTransform="matrix(-8.9973 11.62479 -60.709 -46.98729 10.405 2.994)"><stop stop-color="#50D77B"/><stop offset="1" stop-color="#37AC5C"/></radialGradient></defs></svg>